# xmcd
#
# Track frame offsets: 
#        150
#        10972
#        37190
#        57757
#        76870
#        93525
#        111040
#        126295
#        141907
#        161387
#        179777
#        194460
#        213877
#        228820
#        243197
#        260480
#        273252
#        295132
#        309285
#
# Disc length: 4375 seconds
#
# Revision: 3
# Processed by: cddbd v1.5.2PL0 Copyright (c) Steve Scherf et al.
# Submitted via: ExactAudioCopy v1.3
#
DISCID=08111513
DTITLE=Jimmy Jam and Terry Lewis - The Hit Songs [CD1)
DYEAR=1996
DGENRE=Funk
TTITLE0=Klymaxx - Wild Girls
TTITLE1=S.O.S. Band - Just Be Good to Me
TTITLE2=S.O.S. Band - Tell Me If You Still Care
TTITLE3=Change - Change of Heart
TTITLE4=Cheryl Lynn - Encore
TTITLE5=Cherrelle - I Didn't Mean to Turn You On
TTITLE6=Change - Say You Love Me Again
TTITLE7=S.O.S. Band - Just the Way You Like It
TTITLE8=S.O.S. Band - No One's Gonna Love You
TTITLE9=S.O.S. Band - Weekend Girl
TTITLE10=Thelma Houston - You Used to Hold Me So Tight
TTITLE11=Alexander O'Neal - If You Were Here Tonight
TTITLE12=Alexander O'Neal - A Broken Heart Can Mend
TTITLE13=Patti Austin - The Heat of Heat
TTITLE14=Alexander O'Neal - What's Missing
TTITLE15=Force M.D.'s - Tender Love
TTITLE16=Cherrelle and Alexander O'Neal - Saturday Love
TTITLE17=Janet Jackson - What Have You Done for Me Lately?
TTITLE18=Patti Austin - Summer Is the Coldest Time of the Year
EXTD=
EXTT0=
EXTT1=
EXTT2=
EXTT3=
EXTT4=
EXTT5=
EXTT6=
EXTT7=
EXTT8=
EXTT9=
EXTT10=
EXTT11=
EXTT12=
EXTT13=
EXTT14=
EXTT15=
EXTT16=
EXTT17=
EXTT18=
PLAYORDER=
